<?xml version="1.0" encoding="utf-8"?>
<!-- Generator: Adobe Illustrator 16.0.0, SVG Export Plug-In . SVG Version: 6.00 Build 0)  -->
<!DOCTYPE svg PUBLIC "-//W3C//DTD SVG 1.1//EN" "http://www.w3.org/Graphics/SVG/1.1/DTD/svg11.dtd">
<svg version="1.1" xmlns="http://www.w3.org/2000/svg" xmlns:xlink="http://www.w3.org/1999/xlink" x="0px" y="0px" width="600px"
	 height="300px" viewBox="0 0 600 300" enable-background="new 0 0 600 300" xml:space="preserve">
<g id="Layer_1" display="none">
	<g display="inline">
		<defs>
			<rect id="SVGID_1_" x="9.266" y="57.704" width="581.468" height="184.592"/>
		</defs>
		<clipPath id="SVGID_2_">
			<use xlink:href="#SVGID_1_"  overflow="visible"/>
		</clipPath>
		<g clip-path="url(#SVGID_2_)">
			<defs>
				<rect id="SVGID_3_" x="9.266" y="57.703" width="581.468" height="184.593"/>
			</defs>
			<clipPath id="SVGID_4_">
				<use xlink:href="#SVGID_3_"  overflow="visible"/>
			</clipPath>
			<path clip-path="url(#SVGID_4_)" d="M223.84,87.564c0-7.73,5.728-14.489,15.52-14.489c9.848,0,15.576,6.759,15.576,14.489
				c0,7.731-5.728,14.543-15.576,14.543C229.567,102.107,223.84,95.295,223.84,87.564 M244.341,87.564
				c0-3.035-1.775-5.38-4.982-5.38c-3.151,0-4.926,2.345-4.926,5.38c0,3.095,1.775,5.442,4.926,5.442
				C242.566,93.006,244.341,90.659,244.341,87.564"/>
			<path clip-path="url(#SVGID_4_)" d="M259.11,90.942c2.175,1.719,6.871,3.496,9.963,3.496c2.12,0,2.749-0.576,2.749-1.317
				c0-0.918-1.259-1.263-3.892-1.606c-4.639-0.628-11.797-1.488-11.797-8.988c0-4.984,4.354-9.451,12.368-9.451
				c4.639,0,8.764,1.434,11.97,3.552l-3.779,6.7c-1.718-1.43-4.925-2.861-8.132-2.861c-1.491,0-2.578,0.399-2.578,1.201
				c0,0.801,0.803,1.146,3.55,1.548c4.639,0.685,12.142,1.659,12.142,9.39c0,5.499-4.926,9.505-13.114,9.505
				c-5.097,0-10.595-1.775-13.574-4.237L259.11,90.942z"/>
			<polygon clip-path="url(#SVGID_4_)" points="280.236,73.764 291.114,73.764 296.384,89.57 301.708,73.764 312.59,73.764 
				301.88,101.424 290.943,101.424 			"/>
			<path clip-path="url(#SVGID_4_)" d="M311.265,87.564c0-7.73,5.73-14.489,15.522-14.489c9.847,0,15.574,6.759,15.574,14.489
				c0,7.731-5.728,14.543-15.574,14.543C316.996,102.107,311.265,95.295,311.265,87.564 M331.767,87.564
				c0-3.035-1.773-5.38-4.979-5.38c-3.15,0-4.927,2.345-4.927,5.38c0,3.095,1.776,5.442,4.927,5.442
				C329.994,93.006,331.767,90.659,331.767,87.564"/>
			<path clip-path="url(#SVGID_4_)" d="M355.071,100.22c0,7.104-3.495,12.425-11.511,12.425c-1.317,0-2.348-0.056-3.208-0.227
				v-8.304c0.571,0.115,1.03,0.115,1.377,0.115c1.886,0,3.033-1.375,3.033-4.009V73.765h10.309V100.22z M344.131,65.975
				c0-3.207,2.579-5.782,5.783-5.782c3.208,0,5.787,2.575,5.787,5.782c0,3.209-2.579,5.785-5.787,5.785
				C346.71,71.76,344.131,69.185,344.131,65.975"/>
			<path clip-path="url(#SVGID_4_)" d="M358.731,65.975c0-3.205,2.577-5.783,5.782-5.783c3.208,0,5.788,2.578,5.788,5.783
				c0,3.209-2.58,5.787-5.788,5.787C361.308,71.762,358.731,69.185,358.731,65.975 M359.362,73.764h10.306v27.66h-10.306V73.764z"/>
			<polygon clip-path="url(#SVGID_4_)" points="226.482,147.814 214.781,159.47 202.918,147.144 229.321,121.129 247.382,121.083 
				247.554,190.317 226.588,190.372 			"/>
			<path clip-path="url(#SVGID_4_)" d="M282.986,119.959c20.656-0.051,30.768,16.842,30.813,35.631
				c0.048,18.787-9.978,35.834-30.635,35.887c-20.656,0.048-30.768-16.946-30.815-35.736
				C252.303,136.955,262.331,120.011,282.986,119.959 M283.033,138.434c-6.642,0.018-9.64,5.526-9.611,17.256
				c0.03,11.729,3.053,17.327,9.696,17.311c6.645-0.019,9.64-5.632,9.611-17.36C292.699,143.91,289.676,138.417,283.033,138.434"/>
			<path clip-path="url(#SVGID_4_)" d="M326.708,169.156c6.02-0.02,11.119,5.056,11.133,11.078
				c0.02,6.02-5.059,11.118-11.077,11.133c-6.02,0.017-11.119-5.057-11.134-11.076C315.617,174.27,320.689,169.17,326.708,169.156"
				/>
			<path clip-path="url(#SVGID_4_)" d="M371.327,119.739c20.657-0.049,30.769,16.844,30.814,35.633
				c0.046,18.787-9.98,35.832-30.636,35.885c-20.656,0.051-30.769-16.946-30.812-35.736
				C340.643,136.735,350.672,119.791,371.327,119.739 M371.372,138.213c-6.644,0.018-9.639,5.528-9.609,17.259
				c0.028,11.728,3.053,17.324,9.696,17.308c6.643-0.02,9.641-5.63,9.609-17.358C381.04,143.693,378.015,138.199,371.372,138.213"/>
			<path clip-path="url(#SVGID_4_)" d="M433.921,119.584c20.657-0.049,30.77,16.844,30.814,35.633
				c0.046,18.787-9.98,35.832-30.635,35.887c-20.657,0.048-30.77-16.946-30.812-35.736
				C403.239,136.582,413.267,119.638,433.921,119.584 M433.967,138.061c-6.642,0.016-9.64,5.526-9.61,17.257
				c0.028,11.728,3.053,17.324,9.696,17.308s9.644-5.63,9.609-17.358C443.634,143.538,440.61,138.044,433.967,138.061"/>
			<path clip-path="url(#SVGID_4_)" d="M496.519,119.428c20.654-0.049,30.769,16.844,30.812,35.633
				c0.048,18.787-9.98,35.832-30.633,35.887c-20.659,0.048-30.771-16.946-30.816-35.736
				C465.833,136.427,475.862,119.482,496.519,119.428 M496.564,137.905c-6.644,0.018-9.639,5.526-9.612,17.256
				c0.031,11.729,3.056,17.325,9.696,17.311c6.644-0.019,9.644-5.632,9.612-17.36C506.229,143.382,503.208,137.889,496.564,137.905"
				/>
			<polygon clip-path="url(#SVGID_4_)" points="547.966,148.419 546.16,150.862 546.173,156.52 536.832,156.539 536.745,121.935 
				546.085,121.91 546.13,140.383 551.871,131.442 563.125,131.416 554.545,142.85 563.758,156.474 552.295,156.503 			"/>
			<path clip-path="url(#SVGID_4_)" d="M581.361,142.576c-0.008-2.595-1.411-3.576-3.639-3.569
				c-2.128,0.005-3.218,1.095-3.992,1.983l0.038,15.46l-9.34,0.023l-0.06-25.062l9.337-0.021l0.008,2.854
				c1.45-1.665,4.192-3.488,8.605-3.499c5.812-0.015,8.362,3.508,8.372,7.866l0.043,17.792l-9.338,0.024L581.361,142.576z"/>
			<path clip-path="url(#SVGID_4_)" d="M240.788,218.863c0-3.679-1.863-4.848-4.676-4.848c-2.556,0-4.979,1.556-6.19,3.246v15.285
				h-3.249v-20.913h3.249v3.029c1.47-1.73,4.327-3.55,7.447-3.55c4.371,0,6.665,2.206,6.665,6.756v14.678h-3.245V218.863z"/>
			<path clip-path="url(#SVGID_4_)" d="M262.524,230.164c-1.733,1.907-4.113,2.901-6.928,2.901c-3.55,0-7.317-2.383-7.317-6.928
				c0-4.676,3.768-6.887,7.317-6.887c2.857,0,5.238,0.91,6.928,2.856v-3.766c0-2.811-2.253-4.412-5.283-4.412
				c-2.511,0-4.545,0.908-6.407,2.896l-1.517-2.252c2.252-2.338,4.937-3.464,8.356-3.464c4.417,0,8.098,1.994,8.098,7.062v14.374
				h-3.248V230.164z M262.524,224.189c-1.256-1.73-3.464-2.601-5.76-2.601c-3.031,0-5.153,1.907-5.153,4.59
				c0,2.644,2.122,4.549,5.153,4.549c2.296,0,4.504-0.867,5.76-2.601V224.189z"/>
			<path clip-path="url(#SVGID_4_)" d="M281.273,240.51v-28.878h3.248v3.12c1.513-2.123,4.113-3.642,7.056-3.642
				c5.501,0,9.309,4.16,9.309,10.959c0,6.753-3.808,10.994-9.309,10.994c-2.856,0-5.368-1.344-7.056-3.682v11.128H281.273z
				 M290.754,214.016c-2.553,0-5.106,1.513-6.233,3.33v9.442c1.127,1.817,3.68,3.378,6.233,3.378c4.2,0,6.711-3.464,6.711-8.097
				C297.466,217.434,294.955,214.016,290.754,214.016"/>
			<path clip-path="url(#SVGID_4_)" d="M303.831,222.069c0-6.065,3.985-10.959,10.35-10.959c6.363,0,10.346,4.894,10.346,10.959
				c0,6.06-3.982,10.994-10.346,10.994C307.816,233.063,303.831,228.129,303.831,222.069 M321.108,222.069
				c0-4.243-2.468-8.054-6.928-8.054c-4.461,0-6.972,3.811-6.972,8.054c0,4.286,2.511,8.097,6.972,8.097
				C318.64,230.166,321.108,226.355,321.108,222.069"/>
			<polygon clip-path="url(#SVGID_4_)" points="335.439,223.152 331.975,226.568 331.975,232.547 328.731,232.547 328.731,203.666 
				331.975,203.666 331.975,222.76 342.972,211.634 347.088,211.634 337.823,221.115 347.129,232.547 342.972,232.547 			"/>
			<rect x="349.905" y="203.664" clip-path="url(#SVGID_4_)" width="3.244" height="28.881"/>
			<path clip-path="url(#SVGID_4_)" d="M357.349,222.069c0-6.065,3.982-10.959,10.346-10.959c6.369,0,10.35,4.894,10.35,10.959
				c0,6.06-3.98,10.994-10.35,10.994C361.332,233.063,357.349,228.129,357.349,222.069 M374.624,222.069
				c0-4.243-2.468-8.054-6.929-8.054c-4.456,0-6.971,3.811-6.971,8.054c0,4.286,2.515,8.097,6.971,8.097
				C372.156,230.166,374.624,226.355,374.624,222.069"/>
			<path clip-path="url(#SVGID_4_)" d="M396.361,218.863c0-3.679-1.862-4.848-4.676-4.848c-2.556,0-4.978,1.556-6.189,3.246v15.285
				h-3.251v-20.913h3.251v3.029c1.47-1.73,4.327-3.55,7.446-3.55c4.373,0,6.665,2.206,6.665,6.756v14.678h-3.246V218.863z"/>
			<polygon clip-path="url(#SVGID_4_)" points="421.821,223.152 418.356,226.568 418.356,232.547 415.113,232.547 415.113,203.666 
				418.356,203.666 418.356,222.76 429.355,211.634 433.469,211.634 424.204,221.115 433.51,232.547 429.355,232.547 			"/>
			<path clip-path="url(#SVGID_4_)" d="M449.357,230.164c-1.73,1.907-4.111,2.901-6.925,2.901c-3.548,0-7.315-2.383-7.315-6.928
				c0-4.676,3.768-6.887,7.315-6.887c2.856,0,5.24,0.91,6.925,2.856v-3.766c0-2.811-2.249-4.412-5.278-4.412
				c-2.512,0-4.549,0.908-6.409,2.896l-1.518-2.252c2.252-2.338,4.937-3.464,8.359-3.464c4.413,0,8.095,1.994,8.095,7.062v14.374
				h-3.249V230.164z M449.357,224.189c-1.255-1.73-3.461-2.601-5.756-2.601c-3.031,0-5.154,1.907-5.154,4.59
				c0,2.644,2.123,4.549,5.154,4.549c2.295,0,4.501-0.867,5.756-2.601V224.189z"/>
			<path clip-path="url(#SVGID_4_)" d="M458.018,211.634h3.249v3.378c1.69-2.208,4.112-3.812,6.971-3.812v3.337
				c-0.39-0.091-0.779-0.131-1.298-0.131c-1.993,0-4.722,1.645-5.673,3.33v14.812h-3.249V211.634z"/>
			<path clip-path="url(#SVGID_4_)" d="M471.875,228.175v-13.687h-3.464v-2.856h3.464v-5.716h3.249v5.716h4.243v2.856h-4.243v12.991
				c0,1.561,0.69,2.685,2.12,2.685c0.908,0,1.773-0.393,2.211-0.866l0.949,2.422c-0.822,0.782-1.991,1.346-3.895,1.346
				C473.435,233.065,471.875,231.287,471.875,228.175"/>
			<path clip-path="url(#SVGID_4_)" d="M482.312,206.091c0-1.212,0.994-2.209,2.16-2.209c1.215,0,2.212,0.997,2.212,2.209
				c0,1.214-0.997,2.163-2.212,2.163C483.306,208.254,482.312,207.305,482.312,206.091 M482.871,211.632h3.249v20.913h-3.249
				V211.632z"/>
			<path clip-path="url(#SVGID_4_)" d="M500.755,211.113c3.811,0,6.062,1.561,7.661,3.636l-2.163,1.994
				c-1.385-1.908-3.16-2.728-5.326-2.728c-4.461,0-7.231,3.421-7.231,8.054s2.771,8.095,7.231,8.095
				c2.166,0,3.941-0.866,5.326-2.726l2.163,1.989c-1.599,2.079-3.851,3.638-7.661,3.638c-6.237,0-10.436-4.764-10.436-10.996
				C490.32,215.875,494.518,211.113,500.755,211.113"/>
			<path clip-path="url(#SVGID_4_)" d="M511.319,206.091c0-1.212,0.997-2.209,2.166-2.209c1.212,0,2.209,0.997,2.209,2.209
				c0,1.214-0.997,2.163-2.209,2.163C512.316,208.254,511.319,207.305,511.319,206.091 M511.885,211.632h3.247v20.913h-3.247
				V211.632z"/>
			<path clip-path="url(#SVGID_4_)" d="M522.275,228.213c1.298,0,2.384,1.085,2.384,2.386c0,1.255-1.086,2.381-2.384,2.381
				s-2.384-1.126-2.384-2.381C519.891,229.298,520.977,228.213,522.275,228.213 M520.238,203.666h4.071l-0.693,20.782h-2.685
				L520.238,203.666z"/>
			<path clip-path="url(#SVGID_4_)" fill="#DCDDDE" d="M59.97,238.033c0-2.354,22.53-4.265,50.322-4.265s50.32,1.91,50.32,4.265
				s-22.529,4.26-50.32,4.26S59.97,240.388,59.97,238.033"/>
			<path clip-path="url(#SVGID_4_)" fill="#B89DCA" d="M95.045,236.219l-84.306-118.3c-2.542-3.569-1.71-8.525,1.856-11.065
				l56.361-40.167c3.569-2.541,8.521-1.712,11.065,1.857l84.305,118.302c2.542,3.568,1.712,8.522-1.857,11.063l-56.359,40.166
				C102.541,240.617,97.587,239.788,95.045,236.219"/>
			<polygon clip-path="url(#SVGID_4_)" points="65.389,111.052 57.227,109.72 58.629,102.467 75.393,105.39 79.887,111.698 
				51.657,131.813 46.468,124.536 			"/>
			<path clip-path="url(#SVGID_4_)" d="M90.776,126.082c5.882,8.254,1.516,17.175-5.931,22.482
				c-7.451,5.308-17.35,6.553-23.229-1.701c-5.882-8.252-1.474-17.2,5.975-22.51C75.041,119.046,84.897,117.829,90.776,126.082
				 M84.343,130.667c-2.412-3.385-6.509-2.506-11.503,1.051c-4.996,3.56-7.204,7.174-4.791,10.562
				c2.412,3.385,6.554,2.477,11.548-1.082C84.591,137.639,86.757,134.053,84.343,130.667"/>
			<path clip-path="url(#SVGID_4_)" d="M108.845,151.436c5.879,8.254,1.514,17.173-5.935,22.48
				c-7.449,5.307-17.346,6.553-23.228-1.7c-5.882-8.252-1.474-17.2,5.976-22.511C93.106,144.398,102.961,143.183,108.845,151.436
				 M102.412,156.02c-2.415-3.387-6.512-2.508-11.506,1.052c-4.994,3.56-7.204,7.172-4.791,10.56
				c2.414,3.388,6.554,2.479,11.546-1.078C102.658,162.993,104.822,159.407,102.412,156.02"/>
			<path clip-path="url(#SVGID_4_)" d="M126.911,176.789c5.882,8.252,1.516,17.172-5.931,22.481
				c-7.453,5.307-17.35,6.55-23.232-1.702c-5.879-8.253-1.471-17.2,5.978-22.508C111.173,169.751,121.032,168.537,126.911,176.789
				 M120.478,181.374c-2.414-3.39-6.509-2.51-11.506,1.05c-4.994,3.56-7.201,7.174-4.791,10.56c2.413,3.39,6.554,2.481,11.55-1.078
				C120.726,188.346,122.892,184.76,120.478,181.374"/>
			<path clip-path="url(#SVGID_4_)" fill="#FFFFFF" d="M59.799,85.525c3.18,4.464,8.195,6.842,13.287,6.842
				c3.27,0,6.575-0.981,9.444-3.026l62.866,88.218c-7.33,5.224-9.038,15.403-3.814,22.73c0.032,0.045,0.069,0.081,0.098,0.126
				l-26.42,18.826c-0.029-0.043-0.054-0.091-0.083-0.132c-3.181-4.466-8.196-6.842-13.288-6.842c-3.273,0-6.578,0.982-9.446,3.026
				l-62.866-88.218c7.332-5.223,9.038-15.4,3.814-22.73L59.799,85.525 M59.799,81.99c-0.732,0-1.45,0.228-2.055,0.656
				l-26.405,18.817c-0.764,0.546-1.28,1.373-1.436,2.296c-0.156,0.925,0.062,1.873,0.607,2.639c1.978,2.773,2.756,6.155,2.193,9.515
				c-0.565,3.364-2.404,6.306-5.179,8.282c-0.764,0.546-1.28,1.371-1.437,2.296c-0.154,0.925,0.063,1.873,0.61,2.639l62.865,88.217
				c0.543,0.763,1.371,1.279,2.296,1.437c0.194,0.031,0.39,0.046,0.583,0.046c0.731,0,1.451-0.225,2.053-0.655
				c2.177-1.549,4.732-2.369,7.393-2.369c4.095,0,7.96,1.973,10.355,5.281c0.037,0.064,0.075,0.122,0.115,0.179
				c0.541,0.774,1.368,1.301,2.298,1.459c0.201,0.038,0.401,0.055,0.603,0.055c0.731,0,1.452-0.228,2.053-0.66l26.421-18.823
				c0.77-0.548,1.286-1.382,1.438-2.314c0.152-0.93-0.074-1.881-0.63-2.646c-0.029-0.041-0.08-0.11-0.127-0.165
				c-1.943-2.767-2.705-6.118-2.144-9.45c0.563-3.361,2.403-6.304,5.179-8.281c0.764-0.547,1.28-1.372,1.434-2.297
				c0.158-0.926-0.063-1.872-0.606-2.637L85.41,87.287c-0.688-0.967-1.777-1.483-2.882-1.483c-0.71,0-1.427,0.213-2.051,0.656
				c-2.174,1.551-4.732,2.372-7.39,2.372c-4.127,0-8.017-2.002-10.409-5.358c-0.544-0.764-1.369-1.28-2.294-1.435
				C60.188,82.007,59.994,81.99,59.799,81.99"/>
			<path clip-path="url(#SVGID_4_)" fill="#B89DCA" d="M100.355,229.126L46.708,94.128c-1.616-4.074,0.372-8.683,4.443-10.301
				l64.317-25.561c4.071-1.616,8.685,0.372,10.301,4.445l53.647,134.998c1.618,4.071-0.37,8.683-4.443,10.301l-64.317,25.556
				C106.585,235.187,101.973,233.197,100.355,229.126"/>
			<polygon clip-path="url(#SVGID_4_)" points="101.418,100.498 93.812,97.259 96.903,90.549 112.485,97.386 115.344,104.583 
				83.129,117.383 79.829,109.077 			"/>
			<path clip-path="url(#SVGID_4_)" d="M122.487,121.153c3.744,9.415-2.626,17.038-11.125,20.413
				c-8.501,3.379-18.409,2.228-22.151-7.192c-3.742-9.417,2.673-17.057,11.175-20.435
				C108.885,110.561,118.745,111.733,122.487,121.153 M115.147,124.068c-1.536-3.863-5.725-3.99-11.425-1.726
				c-5.699,2.267-8.708,5.25-7.17,9.116c1.535,3.863,5.772,3.968,11.471,1.705C113.723,130.898,116.682,127.932,115.147,124.068"/>
			<path clip-path="url(#SVGID_4_)" d="M133.985,150.084c3.743,9.414-2.625,17.038-11.125,20.413
				c-8.501,3.378-18.411,2.229-22.153-7.19c-3.743-9.419,2.672-17.058,11.175-20.436
				C120.381,139.491,130.241,140.664,133.985,150.084 M126.644,153.001c-1.536-3.864-5.724-3.992-11.422-1.726
				c-5.699,2.266-8.708,5.249-7.173,9.114c1.535,3.863,5.772,3.971,11.471,1.705C125.219,159.83,128.178,156.863,126.644,153.001"/>
			<path clip-path="url(#SVGID_4_)" d="M145.482,179.015c3.743,9.417-2.627,17.038-11.127,20.413
				c-8.501,3.378-18.409,2.229-22.151-7.188c-3.743-9.421,2.672-17.057,11.172-20.437
				C131.879,168.425,141.739,169.596,145.482,179.015 M138.141,181.932c-1.536-3.863-5.724-3.988-11.425-1.724
				c-5.699,2.264-8.708,5.247-7.17,9.112c1.535,3.866,5.772,3.971,11.471,1.707C136.716,188.761,139.676,185.797,138.141,181.932"/>
			<path clip-path="url(#SVGID_4_)" fill="#FFFFFF" d="M102.081,74.375c2.541,6.391,8.67,10.283,15.15,10.283
				c2.005,0,4.042-0.372,6.015-1.155l40.004,100.67c-8.365,3.32-12.45,12.797-9.126,21.161c0.021,0.053,0.044,0.096,0.063,0.146
				l-30.149,11.979c-0.019-0.048-0.028-0.101-0.049-0.148c-2.541-6.39-8.67-10.284-15.153-10.281c-2.002,0-4.039,0.368-6.015,1.152
				L62.817,107.515c8.367-3.324,12.453-12.8,9.128-21.165L102.081,74.375 M102.081,70.837c-0.444,0-0.887,0.084-1.306,0.252
				L70.641,83.063c-1.815,0.722-2.703,2.778-1.98,4.592c2.597,6.541-0.606,13.975-7.148,16.575
				c-0.872,0.345-1.569,1.023-1.941,1.885c-0.372,0.862-0.384,1.833-0.04,2.708l40.005,100.669c0.551,1.387,1.88,2.23,3.287,2.23
				c0.434,0,0.876-0.079,1.305-0.253c1.513-0.598,3.1-0.904,4.707-0.904c5.234,0,9.869,3.122,11.831,7.971
				c0.025,0.066,0.047,0.134,0.072,0.198c0.339,0.88,1.019,1.587,1.881,1.968c0.453,0.198,0.936,0.296,1.417,0.296
				c0.444,0,0.89-0.081,1.308-0.251l30.148-11.979c0.876-0.349,1.577-1.032,1.946-1.9c0.373-0.865,0.38-1.848,0.025-2.718
				c-0.021-0.05-0.054-0.129-0.086-0.196c-2.544-6.517,0.663-13.908,7.175-16.492c1.815-0.722,2.703-2.778,1.983-4.595
				L126.532,82.199c-0.345-0.874-1.025-1.572-1.887-1.943c-0.446-0.191-0.923-0.29-1.4-0.29c-0.443,0-0.887,0.084-1.305,0.25
				c-1.513,0.603-3.099,0.906-4.709,0.906c-5.26,0-9.919-3.16-11.863-8.051c-0.348-0.872-1.025-1.569-1.887-1.943
				C103.034,70.936,102.557,70.837,102.081,70.837"/>
			<g opacity="0.36" clip-path="url(#SVGID_4_)">
				<g>
					<defs>
						<rect id="SVGID_5_" x="43.382" y="92.207" width="63.174" height="141.834"/>
					</defs>
					<clipPath id="SVGID_6_">
						<use xlink:href="#SVGID_5_"  overflow="visible"/>
					</clipPath>
					<path clip-path="url(#SVGID_6_)" d="M106.557,234.036c0,0-4.989,0.815-14.534-15.957
						c-8.074-14.186-38.725-89.811-47.985-112.793c-1.567-3.891-0.262-8.341,3.153-10.774l3.233-2.306L106.557,234.036z"/>
				</g>
			</g>
			<path clip-path="url(#SVGID_4_)" fill="#B89DCA" d="M99.068,230.527L86.199,85.83c-0.389-4.365,2.835-8.218,7.199-8.605
				l68.937-6.132c4.363-0.387,8.215,2.835,8.605,7.199l12.868,144.697c0.388,4.365-2.836,8.214-7.199,8.604l-68.937,6.13
				C103.308,238.112,99.457,234.888,99.068,230.527"/>
			<polygon clip-path="url(#SVGID_4_)" points="136.811,107.557 130.446,102.28 135.327,96.73 148.306,107.734 148.992,115.449 
				114.463,118.519 113.67,109.616 			"/>
			<path clip-path="url(#SVGID_4_)" d="M151.106,133.366c0.897,10.095-7.381,15.579-16.49,16.39
				c-9.113,0.811-18.278-3.121-19.177-13.216c-0.898-10.096,7.432-15.584,16.544-16.395
				C141.095,119.332,150.21,123.271,151.106,133.366 M143.239,134.066c-0.368-4.142-4.346-5.457-10.455-4.915
				c-6.11,0.542-9.843,2.546-9.476,6.688c0.367,4.14,4.398,5.452,10.506,4.908C139.924,140.204,143.606,138.205,143.239,134.066"/>
			<path clip-path="url(#SVGID_4_)" d="M153.864,164.375c0.899,10.096-7.381,15.577-16.489,16.388
				c-9.112,0.81-18.28-3.12-19.177-13.216c-0.899-10.093,7.431-15.581,16.542-16.395
				C143.852,150.342,152.967,154.282,153.864,164.375 M145.997,165.075c-0.368-4.141-4.346-5.458-10.455-4.917
				c-6.108,0.547-9.843,2.546-9.477,6.691c0.37,4.14,4.399,5.447,10.507,4.905C142.682,171.215,146.363,169.214,145.997,165.075"/>
			<path clip-path="url(#SVGID_4_)" d="M156.623,195.386c0.899,10.095-7.381,15.579-16.489,16.387
				c-9.114,0.811-18.282-3.119-19.177-13.215c-0.899-10.096,7.431-15.584,16.54-16.395
				C146.608,181.351,155.724,185.29,156.623,195.386 M148.755,196.086c-0.371-4.143-4.349-5.458-10.456-4.917
				c-6.11,0.545-9.843,2.546-9.476,6.688c0.367,4.143,4.399,5.45,10.507,4.908C145.441,202.225,149.122,200.224,148.755,196.086"/>
			<path clip-path="url(#SVGID_4_)" fill="#FFFFFF" d="M144.904,82.709c0.753,8.477,7.868,14.859,16.218,14.859
				c0.482,0,0.97-0.021,1.461-0.068l9.596,107.9c-8.966,0.801-15.588,8.714-14.791,17.679c0.006,0.055,0.018,0.105,0.022,0.157
				l-32.316,2.874c-0.004-0.053,0-0.105-0.004-0.155c-0.754-8.478-7.868-14.857-16.215-14.857c-0.484,0-0.972,0.019-1.464,0.066
				l-9.596-107.901c8.967-0.798,15.589-8.715,14.791-17.68L144.904,82.709 M144.904,79.173c-0.103,0-0.208,0.005-0.314,0.016
				l-32.298,2.871c-1.946,0.173-3.382,1.89-3.209,3.836c0.301,3.396-0.736,6.706-2.925,9.319c-2.187,2.614-5.261,4.221-8.657,4.521
				c-0.935,0.086-1.796,0.537-2.399,1.254c-0.602,0.72-0.893,1.649-0.81,2.585l9.596,107.901c0.165,1.838,1.707,3.22,3.52,3.22
				c0.103,0,0.211-0.005,0.317-0.014c0.386-0.031,0.769-0.048,1.15-0.048c6.507,0,12.062,5.061,12.683,11.541
				c0.002,0.072,0.005,0.142,0.012,0.213c0.074,0.939,0.521,1.814,1.243,2.424c0.64,0.541,1.45,0.835,2.282,0.835
				c0.105,0,0.208-0.005,0.313-0.015l32.316-2.873c0.939-0.084,1.806-0.541,2.408-1.268c0.603-0.724,0.89-1.659,0.799-2.599
				c-0.005-0.053-0.015-0.139-0.028-0.21c-0.575-6.979,4.608-13.139,11.59-13.758c1.946-0.175,3.382-1.894,3.208-3.837
				l-9.596-107.904c-0.164-1.838-1.708-3.221-3.518-3.221c-0.105,0-0.212,0.005-0.318,0.016c-0.386,0.034-0.771,0.049-1.147,0.049
				c-6.54,0-12.115-5.11-12.695-11.634c-0.083-0.932-0.534-1.796-1.253-2.396C146.537,79.463,145.731,79.173,144.904,79.173"/>
			<g opacity="0.36" clip-path="url(#SVGID_4_)">
				<g>
					<defs>
						<rect id="SVGID_7_" x="80.414" y="85.051" width="23.195" height="151.95"/>
					</defs>
					<clipPath id="SVGID_8_">
						<use xlink:href="#SVGID_7_"  overflow="visible"/>
					</clipPath>
					<path clip-path="url(#SVGID_8_)" d="M103.609,237.003c0,0-5.014-0.646-9.373-19.44c-3.687-15.901-11.471-97.13-13.782-121.8
						c-0.392-4.174,2.129-8.068,6.097-9.427l3.755-1.285L103.609,237.003z"/>
				</g>
			</g>
		</g>
	</g>
</g>
<g id="Layer_2">
	<g>
		<defs>
			<rect id="SVGID_9_" x="19.834" y="83.948" width="563.899" height="132.722"/>
		</defs>
		<clipPath id="SVGID_10_">
			<use xlink:href="#SVGID_9_"  overflow="visible"/>
		</clipPath>
		<path clip-path="url(#SVGID_10_)" d="M155.109,195.865V171.88h6.472v1.837c1.403-1.655,3.093-2.271,4.891-2.271
			c4.317,0,7.623,3.167,7.623,9.104c0,5.966-3.306,9.134-7.623,9.134c-1.798,0-3.452-0.616-4.891-2.271v8.453H155.109z
			 M164.243,177.165c-0.828,0-2.048,0.434-2.662,1.188v4.424c0.575,0.72,1.834,1.188,2.662,1.188c1.726,0,3.237-1.222,3.237-3.414
			C167.479,178.387,165.968,177.165,164.243,177.165"/>
		<path clip-path="url(#SVGID_10_)" d="M175.594,171.88h6.472v1.979c1.08-1.261,3.345-2.408,5.322-2.408v6.183
			c-0.323-0.104-0.862-0.178-1.476-0.178c-1.364,0-3.127,0.359-3.846,1.222v10.572h-6.472V171.88z"/>
		<path clip-path="url(#SVGID_10_)" d="M196.983,171.451c5.105,0,9.025,3.665,9.025,9.778v1.33h-11.794
			c0.358,1.113,1.617,2.197,3.812,2.197c1.476,0,3.054-0.542,3.919-1.227l2.662,3.995c-1.726,1.473-4.818,2.158-7.408,2.158
			c-5.428,0-9.673-3.419-9.673-9.134C187.524,175.515,191.373,171.451,196.983,171.451 M194.141,178.461h5.718
			c-0.183-0.754-0.79-2.084-2.876-2.084C195.002,176.377,194.357,177.673,194.141,178.461"/>
		<path clip-path="url(#SVGID_10_)" d="M219.049,187.309c-1.004,1.113-2.91,2.369-5.968,2.369c-4.025,0-5.753-2.408-5.753-5.389
			V171.88h6.472v9.641c0,1.759,0.936,2.443,2.517,2.443c1.438,0,2.195-0.754,2.732-1.37V171.88h6.474v17.37h-6.474V187.309z"/>
		<polygon clip-path="url(#SVGID_10_)" points="227.598,184.501 233.708,177.49 227.598,177.49 227.598,171.88 242.558,171.88 
			242.558,176.412 236.299,183.644 242.698,183.644 242.698,189.25 227.598,189.25 		"/>
		<path clip-path="url(#SVGID_10_)" d="M266.961,179.106c0-1.04-0.537-1.941-1.978-1.941c-1.437,0-2.229,0.867-2.66,1.365v10.72
			h-6.473v-10.144c0-1.04-0.504-1.941-1.977-1.941c-1.403,0-2.195,0.867-2.626,1.365v10.72h-6.472v-17.37h6.472v1.979
			c0.754-0.97,2.948-2.408,5.753-2.408c2.447,0,4.207,0.896,5,3.054c1.006-1.507,3.271-3.054,6.075-3.054
			c3.201,0,5.357,1.615,5.357,5.212v12.587h-6.472V179.106z"/>
		<path clip-path="url(#SVGID_10_)" d="M275.719,166.992c0-2.015,1.616-3.636,3.632-3.636c2.012,0,3.632,1.621,3.632,3.636
			c0,2.011-1.62,3.631-3.632,3.631C277.335,170.623,275.719,169.003,275.719,166.992 M276.114,171.88h6.472v17.37h-6.472V171.88z"/>
		<path clip-path="url(#SVGID_10_)" d="M307.195,176.076c4.197,3.469,10.404,5.296,15.7,5.296c6.118,0,8.581-2.832,8.581-5.749
			c0-3.104-2.369-5.482-8.034-5.482c-4.655,0-8.213,1.28-11.321,4.202l-12.69-2.922V134.81h46.563v15.338h-29.03v9.682
			c3.833-2.833,8.488-4.661,13.602-4.661c10.409,0,19.632,7.577,19.632,19.721c0,13.419-10.045,21.912-27.12,21.912
			c-10.862,0-19.537-3.192-25.469-8.582L307.195,176.076z"/>
		<path clip-path="url(#SVGID_10_)" d="M378.222,133.901c18.168,0,27.021,14.877,27.021,31.406c0,16.523-8.853,31.494-27.021,31.494
			s-27.025-14.971-27.025-31.494C351.197,148.779,360.054,133.901,378.222,133.901 M378.222,150.148
			c-5.843,0-8.493,4.844-8.493,15.159s2.65,15.242,8.493,15.242s8.488-4.927,8.488-15.242S384.065,150.148,378.222,150.148"/>
		<path clip-path="url(#SVGID_10_)" d="M418.401,154.942h9.262v12.085c1.951-2.365,4.473-3.237,6.99-3.237
			c6.124,0,10.956,4.784,10.956,13.011c0,8.537-4.936,13.064-10.956,13.064c-2.518,0-4.887-0.872-6.99-3.236v2.621h-9.262V154.942z
			 M431.52,181.688c2.518,0,4.626-1.749,4.626-4.887c0-3.084-2.108-4.833-4.626-4.833c-1.236,0-2.985,0.616-3.857,1.695v6.379
			C428.535,181.121,430.284,181.688,431.52,181.688"/>
		<path clip-path="url(#SVGID_10_)" d="M446.067,176.801c0-6.941,5.144-13.011,13.937-13.011c8.853,0,13.991,6.069,13.991,13.011
			c0,6.946-5.139,13.064-13.991,13.064C451.21,189.865,446.067,183.747,446.067,176.801 M464.482,176.801
			c0-2.725-1.596-4.833-4.479-4.833c-2.827,0-4.419,2.108-4.419,4.833c0,2.778,1.592,4.887,4.419,4.887
			C462.886,181.688,464.482,179.579,464.482,176.801"/>
		<path clip-path="url(#SVGID_10_)" d="M492.404,186.629c-2.108,2.364-4.473,3.236-6.99,3.236c-6.02,0-10.956-4.527-10.956-13.064
			c0-8.227,4.833-13.016,10.956-13.016c2.518,0,5.04,0.877,6.99,3.247v-12.09h9.257v34.308h-9.257V186.629z M492.404,173.613
			c-0.871-1.079-2.62-1.646-3.856-1.646c-2.518,0-4.626,1.749-4.626,4.833s2.108,4.887,4.626,4.887c1.236,0,2.985-0.615,3.856-1.699
			V173.613z"/>
		<path clip-path="url(#SVGID_10_)" d="M503.819,176.801c0-6.941,5.143-13.011,13.937-13.011c8.848,0,13.99,6.069,13.99,13.011
			c0,6.946-5.143,13.064-13.99,13.064C508.961,189.865,503.819,183.747,503.819,176.801 M522.228,176.801
			c0-2.725-1.591-4.833-4.473-4.833c-2.828,0-4.424,2.108-4.424,4.833c0,2.778,1.596,4.887,4.424,4.887
			C520.637,181.688,522.228,179.579,522.228,176.801"/>
		<polygon clip-path="url(#SVGID_10_)" points="530.558,164.406 540.333,164.406 545.062,178.604 549.845,164.406 559.619,164.406 
			549.998,189.25 540.174,189.25 		"/>
		<path clip-path="url(#SVGID_10_)" d="M574.477,186.885c-1.39,1.749-4.424,2.98-7.513,2.98c-3.7,0-8.538-2.518-8.538-8.178
			c0-6.173,4.838-7.665,8.538-7.665c3.241,0,6.177,1.029,7.513,2.729v-2.828c0-1.749-1.597-3.089-4.631-3.089
			c-2.311,0-4.937,0.926-6.888,2.419l-3.143-5.71c3.345-2.675,7.976-3.754,11.729-3.754c6.173,0,12.188,2.158,12.188,10.439v15.021
			h-9.256V186.885z M574.477,181.121c-0.621-0.872-2.212-1.335-3.651-1.335c-1.546,0-3.241,0.513-3.241,2.06
			c0,1.537,1.695,2.005,3.241,2.005c1.439,0,3.03-0.468,3.651-1.34V181.121z"/>
		<path clip-path="url(#SVGID_10_)" fill="#DCDDDE" d="M25.493,213.246c0-1.893,18.104-3.429,40.437-3.429
			c22.332,0,40.435,1.536,40.435,3.429c0,1.892-18.103,3.424-40.435,3.424C43.597,216.67,25.493,215.138,25.493,213.246"/>
		<path clip-path="url(#SVGID_10_)" fill="#FFC20E" d="M120.596,136.409c-14.19-26.012-46.783-35.595-72.795-21.402
			c-26.012,14.19-35.595,46.784-21.402,72.795c14.19,26.011,46.784,35.592,72.796,21.399S134.788,162.421,120.596,136.409"/>
		<path clip-path="url(#SVGID_10_)" fill="#F9A01B" d="M112.84,140.638c-11.855-21.728-39.081-29.733-60.809-17.879
			c-21.73,11.855-29.733,39.081-17.879,60.81c11.855,21.73,39.081,29.735,60.811,17.878
			C116.691,189.595,124.695,162.367,112.84,140.638"/>
		
			<path clip-path="url(#SVGID_10_)" fill="none" stroke="#FFFFFF" stroke-width="2.085" stroke-linecap="round" stroke-miterlimit="10" d="
			M118.639,170.854c0.205-1.285,0.354-2.581,0.443-3.882"/>
		
			<path clip-path="url(#SVGID_10_)" fill="none" stroke="#FFFFFF" stroke-width="2.085" stroke-linecap="round" stroke-miterlimit="10" d="
			M117.645,152.051c-0.91-3.375-2.233-6.696-3.98-9.902c-10.853-19.892-34.479-28.388-55.141-20.849"/>
	</g>
	<g>
		<path fill="#FFFFFF" d="M53.304,173.702c2.377,1.868,5.225,2.609,8.503,2.007c3.672-0.676,5.572-3.375,5.049-6.217
			c-0.579-3.147-3.23-4.784-6.814-4.125c-2.492,0.458-4.402,1.623-5.917,3.709l-3.822-0.382l-2.999-16.305l19.104-3.514l0.829,4.501
			l-13.989,2.573l1.552,8.438c1.142-1.656,3.337-3.234,6.135-3.749c4.896-0.9,9.946,1.74,11.04,7.686
			c1.118,6.076-2.772,10.725-9.286,11.922c-5.027,0.926-8.795-0.145-11.67-2.508L53.304,173.702z"/>
		<path fill="#FFFFFF" d="M82.501,145.463c8.174-1.504,13.087,5.547,14.438,12.891c1.351,7.345-0.723,15.726-8.897,17.229
			c-8.175,1.504-13.096-5.591-14.447-12.935S74.326,146.966,82.501,145.463z M83.337,150.01c-4.765,0.876-5.562,6.129-4.541,11.682
			c1.021,5.551,3.643,10.222,8.408,9.346c4.765-0.877,5.553-6.175,4.531-11.727C90.715,153.759,88.102,149.133,83.337,150.01z"/>
	</g>
	<g>
		<defs>
			<rect id="SVGID_11_" x="19.834" y="83.948" width="563.899" height="132.722"/>
		</defs>
		<clipPath id="SVGID_12_">
			<use xlink:href="#SVGID_11_"  overflow="visible"/>
		</clipPath>
		<path clip-path="url(#SVGID_12_)" d="M369.635,122.585c0.838,1.504,2.197,2.336,3.956,2.748c1.764,0.413,4.02,0.118,4.66-2.625
			l0.33-1.413c-1.419,1.129-3.108,1.586-4.812,1.189c-3.493-0.816-5.577-3.889-4.488-8.537c1.064-4.563,4.286-6.488,7.809-5.666
			c1.67,0.392,3.005,1.463,3.798,3.141l0.419-1.788l3.694,0.862l-3.029,12.99c-1.246,5.309-5.646,5.653-9.079,4.851
			c-2.399-0.561-4.144-1.547-5.518-3.48L369.635,122.585z M380.256,114.137c-0.389-1.067-1.562-2.041-2.778-2.324
			c-2.079-0.484-3.857,0.621-4.414,3.017c-0.562,2.396,0.542,4.176,2.621,4.661c1.217,0.283,2.704-0.098,3.518-0.853
			L380.256,114.137z"/>
		<path clip-path="url(#SVGID_12_)" d="M387.917,111.176l3.665,0.857l-0.443,1.904c1.271-1.014,3.231-1.589,4.966-1.185
			l-0.838,3.582c-0.246-0.122-0.586-0.23-0.995-0.323c-1.207-0.283-2.98,0.002-3.793,0.756l-2.153,9.206l-3.665-0.855
			L387.917,111.176z"/>
		<path clip-path="url(#SVGID_12_)" d="M403.041,127.888c-1.217,0.905-3.02,1.182-4.837,0.758c-2.222-0.52-4.498-2.633-3.769-5.75
			c0.758-3.261,3.665-3.834,5.887-3.314c1.847,0.431,3.359,1.395,4.02,2.734l0.453-1.933c0.33-1.415-0.67-2.621-2.518-3.052
			c-1.497-0.354-3.015-0.125-4.453,0.693l-0.817-2.777c2.059-1.104,4.414-1.283,6.606-0.771c3.177,0.742,5.793,2.691,4.856,6.704
			l-2.104,9.008l-3.665-0.856L403.041,127.888z M403.888,124.25c-0.419-0.948-1.478-1.625-2.66-1.9
			c-1.443-0.337-2.808,0.167-3.118,1.494c-0.306,1.299,0.704,2.328,2.147,2.667c1.183,0.274,2.434,0.14,3.227-0.527L403.888,124.25z
			"/>
		<path clip-path="url(#SVGID_12_)" d="M410.815,127.573l1.699-7.275l-2.311-0.54l0.749-3.203l2.311,0.54l0.887-3.811l3.694,0.862
			l-0.887,3.809l2.828,0.663l-0.749,3.203l-2.828-0.66l-1.473,6.292c-0.202,0.868,0.108,1.64,0.916,1.829
			c0.547,0.129,1.113,0.046,1.365-0.108l0.128,2.954c-0.66,0.361-1.739,0.538-3.267,0.18
			C411.307,131.707,410.233,130.055,410.815,127.573"/>
		<path clip-path="url(#SVGID_12_)" d="M422.13,114.964c0.281-1.213,1.522-1.959,2.704-1.68c1.212,0.279,1.966,1.494,1.681,2.705
			c-0.281,1.21-1.493,1.964-2.705,1.682C422.627,117.396,421.844,116.175,422.13,114.964 M421.574,119.036l3.665,0.857l-3.256,13.94
			l-3.665-0.854L421.574,119.036z"/>
		<path clip-path="url(#SVGID_12_)" d="M426.298,130.216c0.788,1.188,2.646,2.625,4.374,3.028c1.592,0.374,2.469-0.002,2.67-0.867
			c0.227-0.982-0.901-1.61-2.413-2.301c-2.291-1.02-5.242-2.32-4.469-5.637c0.547-2.341,3.074-3.911,6.739-3.056
			c2.37,0.555,4.055,1.802,5.158,3.214l-2.03,2.174c-0.63-1.09-2.049-2.183-3.754-2.58c-1.325-0.311-2.305-0.02-2.497,0.787
			c-0.202,0.867,0.822,1.44,2.306,2.121c2.29,1.022,5.345,2.406,4.537,5.87c-0.602,2.568-3.212,3.967-7.079,3.064
			c-2.424-0.564-4.577-1.918-5.729-3.622L426.298,130.216z"/>
		<path clip-path="url(#SVGID_12_)" d="M377.868,100.912c-0.552-0.129-0.927-0.654-0.853-1.224l1.892-14.768
			c0.079-0.607,0.641-1.038,1.246-0.963c0.597,0.082,1.045,0.638,0.966,1.247l-1.892,14.768c-0.079,0.607-0.641,1.04-1.246,0.963
			C377.941,100.929,377.902,100.922,377.868,100.912"/>
		<path clip-path="url(#SVGID_12_)" d="M367.739,103.59c-0.256-0.058-0.492-0.209-0.655-0.442l-6.725-9.463
			c-0.354-0.499-0.241-1.193,0.262-1.551c0.502-0.356,1.197-0.237,1.552,0.265l6.725,9.461c0.359,0.501,0.241,1.194-0.267,1.553
			C368.365,103.604,368.04,103.657,367.739,103.59"/>
		<path clip-path="url(#SVGID_12_)" d="M351.053,113.969c-0.591-0.139-0.965-0.729-0.832-1.325c0.138-0.602,0.729-0.98,1.33-0.845
			l10.66,2.384c0.005,0,0.005,0,0.01,0.002c0.597,0.138,0.966,0.729,0.833,1.324c-0.133,0.602-0.729,0.978-1.33,0.845l-10.656-2.383
			C351.063,113.972,351.058,113.972,351.053,113.969"/>
		<path clip-path="url(#SVGID_12_)" d="M450.24,147.545c-0.089-0.021-0.172-0.053-0.256-0.094l-10.527-5.386
			c-0.547-0.277-0.764-0.951-0.483-1.498c0.281-0.544,0.951-0.76,1.498-0.484l10.527,5.384c0.547,0.281,0.764,0.951,0.487,1.499
			C451.245,147.431,450.728,147.658,450.24,147.545"/>
		<path clip-path="url(#SVGID_12_)" d="M444.821,130.046c-0.532-0.125-0.906-0.621-0.857-1.181c0.055-0.612,0.592-1.066,1.207-1.011
			l9.316,0.81c0.61,0.058,1.063,0.596,1.01,1.208c-0.05,0.613-0.592,1.068-1.202,1.012l-9.32-0.81
			C444.924,130.068,444.871,130.059,444.821,130.046"/>
		<path clip-path="url(#SVGID_12_)" d="M441.298,118.272c-0.157-0.038-0.305-0.106-0.438-0.212
			c-0.482-0.382-0.562-1.083-0.182-1.564l7.281-9.206c0.384-0.485,1.083-0.565,1.566-0.185c0.482,0.383,0.562,1.083,0.182,1.564
			l-7.28,9.208C442.146,118.227,441.703,118.365,441.298,118.272"/>
		<path clip-path="url(#SVGID_12_)" d="M429.663,108.639c-0.063-0.019-0.128-0.038-0.192-0.066
			c-0.562-0.247-0.822-0.903-0.576-1.464l8.592-19.665c0.251-0.564,0.906-0.822,1.468-0.578c0.562,0.25,0.823,0.906,0.576,1.468
			l-8.591,19.665C430.717,108.498,430.175,108.757,429.663,108.639"/>
		<path clip-path="url(#SVGID_12_)" d="M413.923,103.821c-0.06-0.014-0.118-0.033-0.178-0.056c-0.566-0.24-0.832-0.893-0.596-1.46
			l5.892-14.021c0.236-0.568,0.887-0.825,1.453-0.595c0.571,0.236,0.838,0.89,0.597,1.457l-5.888,14.021
			C414.992,103.675,414.445,103.944,413.923,103.821"/>
		<path clip-path="url(#SVGID_12_)" d="M397.583,101.146c-0.542-0.126-0.916-0.638-0.853-1.206l1.139-10.568
			c0.063-0.611,0.615-1.052,1.227-0.989c0.625,0.056,1.049,0.618,0.985,1.228l-1.139,10.568c-0.063,0.611-0.615,1.054-1.227,0.989
			C397.671,101.164,397.626,101.156,397.583,101.146"/>
	</g>
</g>
</svg>
