<?xml version="1.0" encoding="utf-8"?>
<!-- Generator: Adobe Illustrator 16.0.0, SVG Export Plug-In . SVG Version: 6.00 Build 0)  -->
<!DOCTYPE svg PUBLIC "-//W3C//DTD SVG 1.1//EN" "http://www.w3.org/Graphics/SVG/1.1/DTD/svg11.dtd">
<svg version="1.1" id="Layer_1" xmlns="http://www.w3.org/2000/svg" xmlns:xlink="http://www.w3.org/1999/xlink" x="0px" y="0px"
	 width="143.5px" height="58.5px" viewBox="0 17.5 143.5 58.5" enable-background="new 0 17.5 143.5 58.5" xml:space="preserve">
<g>
	<g>
		<polygon fill="#00A4E4" points="20.387,45.64 8.519,45.64 8.519,22.842 2.546,22.842 2.546,50.896 20.387,50.896 		"/>
		<path fill="#00A4E4" d="M108.856,44.337c-0.93,1.175-2.564,2.318-4.626,2.318c-2.275,0-3.739-0.93-3.739-3.739v-12.34h-5.342
			V45.01c0,3.952,2.104,6.398,6.56,6.398c3.322,0,5.758-1.517,7.147-3.063v2.562h5.341v-20.33h-5.341V44.337z"/>
		<path fill="#00A4E4" d="M127.947,30.074c-2.393,0-4.669,1.047-6.271,3.109V22.842h-5.342v28.056h5.342v-2.564
			c1.602,1.977,3.825,3.066,6.271,3.066c5.128,0,9.006-3.867,9.006-10.642C136.954,34.112,133.129,30.074,127.947,30.074z
			 M127.38,34.571c0.502-0.544,1.068-0.993,1.773-1.249c0.534-0.193,1.154-0.011,1.346,0.513c0.48,1.346,0.513,2.414-0.684,3.536
			c-0.224,0.203-0.47,0.396-0.716,0.566c-0.182,0.118-0.395,0.171-0.524,0.224c-0.812-0.096-1.303-0.502-1.656-1.078
			C126.334,36.143,126.708,35.299,127.38,34.571z M123.716,33.92c0.278-0.117,0.566-0.224,0.844-0.342
			c0.609-0.031,0.78,0.46,0.961,0.823c0.3,0.577,0.534,1.207,0.3,1.88c-0.075,0.235-0.182,0.471-0.332,0.651
			c-0.471,0.578-0.983,1.09-1.72,1.379c-0.641,0.245-1.313-0.139-1.506-0.694C121.794,36.292,122.135,34.583,123.716,33.92z
			 M129.71,43.855c-0.128,0.749-0.257,1.507-0.385,2.266c-0.139,0.833-0.245,1.646-0.812,2.351c-0.663,0.844-1.816,0.897-2.49,0.213
			c-0.224-0.224-0.406-0.49-0.587-0.757c-0.342-0.503-0.706-0.973-1.24-1.293c-0.502-0.299-0.726-0.802-0.886-1.325
			c-0.139-0.459-0.492-0.684-0.898-0.779c-0.705-0.16-1.325-0.406-1.773-1.016c-0.705-0.939-0.812-2.563,0.448-3.236
			c0.203-0.107,0.449-0.139,0.673-0.203c0.823-0.203,1.656-0.385,2.479-0.62c0.417-0.117,0.801-0.363,1.208-0.513
			c0.608-0.224,1.228-0.416,1.88-0.096c0.502,0.245,0.759,0.693,0.79,1.186c0.054,0.705,0.439,0.993,1.037,1.164
			c0.694,0.203,0.78,0.343,0.791,1.314C129.913,42.788,129.806,43.321,129.71,43.855z M130.938,37.532
			c0.374-0.386,0.78-0.76,1.197-1.102c0.491-0.405,1.089-0.544,1.666-0.277c0.695,0.331,1.015,0.939,0.952,1.71
			c-0.065,0.812-0.226,1.591-0.706,2.275c-0.47,0.662-1.71,1.388-2.575,0.833c-0.257-0.161-0.535-0.342-0.695-0.588
			c-0.234-0.385-0.396-0.886-0.449-1.293C130.309,38.504,130.522,37.969,130.938,37.532z M134.41,45.128
			c-0.267,0.427-0.641,0.801-1.015,1.132c-0.31,0.277-0.705,0.47-1.068,0.673c-0.127,0.075-0.288,0.086-0.438,0.118
			c-0.982,0-1.73-1.208-1.378-2.255c0.268-0.79,0.663-1.506,1.282-2.051c0.599-0.513,1.292-0.77,2.073-0.48
			c0.192,0.063,0.417,0.214,0.492,0.385C134.774,43.461,134.913,44.314,134.41,45.128z"/>
		<rect x="87.65" y="22.842" fill="#00A4E4" width="5.342" height="28.056"/>
		<path fill="#00A4E4" d="M82.222,42.019c-1.175,2.318-3.707,4.081-6.816,4.081c-4.882,0-8.579-3.91-8.579-9.209
			c0-5.299,3.707-9.209,8.579-9.209c3.109,0,5.641,1.805,6.816,4.081l5.128-2.521c-1.977-3.493-5.556-6.858-11.944-6.858
			c-8.205,0-14.722,5.886-14.722,14.508c0,0.256,0.01,0.513,0.021,0.759c-1.175-4.327-4.872-7.575-10.363-7.575
			c-5.684,0-9.455,3.525-10.459,8.13c-1.079-4.936-4.786-8.13-9.861-8.13c-6.185,0-10.512,4.754-10.512,10.641
			c0,6.517,4.668,10.685,10.854,10.685c3.151,0,6.314-0.93,8.376-2.82l-2.361-3.45c-1.304,1.26-3.536,2.019-5.427,2.019
			c-3.451,0-5.512-2.147-5.843-4.712h14.635c0.717,5.011,4.594,8.963,10.599,8.963c6.73,0,10.769-4.882,10.769-10.684
			c0-0.064,0-0.117,0-0.182c1.56,6.593,7.318,10.865,14.305,10.865c6.399,0,9.925-3.408,11.944-6.901L82.222,42.019z M25.013,38.824
			c0.255-2.02,1.688-4.498,5.01-4.498c3.537,0,4.883,2.564,5.011,4.498H25.013z M50.333,46.645c-3.322,0-5.17-2.735-5.17-5.93
			c0-3.151,1.848-5.887,5.17-5.887c3.323,0,5.213,2.735,5.213,5.887C55.558,43.909,53.666,46.645,50.333,46.645z"/>
		<rect x="3.433" y="58.183" fill="#00A4E4" width="1.752" height="11.152"/>
		<path fill="#00A4E4" d="M10.697,61.058c-2.553,0-4.145,1.922-4.145,4.229c0,2.328,1.592,4.252,4.145,4.252
			c2.596,0,4.166-1.924,4.166-4.252C14.863,62.978,13.293,61.058,10.697,61.058z M10.697,67.978c-1.485,0-2.329-1.248-2.329-2.69
			c0-1.422,0.833-2.683,2.329-2.683c1.506,0,2.339,1.25,2.339,2.683C13.038,66.729,12.205,67.978,10.697,67.978z"/>
		<path fill="#00A4E4" d="M19.288,67.315l-2.361-6.057h-1.869l3.312,8.184l-0.406,0.918c-0.235,0.535-0.598,0.705-1.153,0.705
			c-0.204,0-0.481-0.053-0.673-0.139l-0.269,1.572c0.246,0.062,0.737,0.116,0.982,0.116c1.25-0.021,2.223-0.448,2.778-1.826
			l3.899-9.529h-1.89L19.288,67.315z"/>
		<path fill="#00A4E4" d="M27.545,61.058c-1.293,0-2.457,0.416-3.397,1.303l0.715,1.218c0.706-0.685,1.485-1.015,2.393-1.015
			c1.122,0,1.891,0.564,1.891,1.504v1.209c-0.587-0.685-1.527-1.035-2.606-1.035c-1.325,0-2.81,0.77-2.81,2.628
			c0,1.794,1.485,2.682,2.81,2.682c1.068,0,2.008-0.386,2.606-1.067v0.865h1.752v-5.354C30.91,61.804,29.339,61.058,27.545,61.058z
			 M29.158,67.499c-0.406,0.555-1.154,0.831-1.923,0.831c-0.983,0-1.72-0.565-1.72-1.44c0-0.888,0.737-1.453,1.72-1.453
			c0.769,0,1.518,0.289,1.923,0.834V67.499z"/>
		<rect x="32.77" y="58.183" fill="#00A4E4" width="1.752" height="11.152"/>
		<path fill="#00A4E4" d="M39.266,67.978c-0.502,0-0.77-0.404-0.77-0.951v-4.23h1.635V61.26h-1.635v-2.212h-1.752v2.212h-1.335
			v1.536h1.335v4.671c0,1.337,0.715,2.072,2.072,2.072c0.823,0,1.335-0.214,1.656-0.524l-0.416-1.324
			C39.917,67.851,39.596,67.978,39.266,67.978z"/>
		<path fill="#00A4E4" d="M44.372,67.315l-2.361-6.057h-1.87l3.312,8.184l-0.406,0.918c-0.235,0.535-0.598,0.705-1.154,0.705
			c-0.203,0-0.48-0.053-0.672-0.139l-0.268,1.572c0.246,0.062,0.737,0.116,0.983,0.116c1.25-0.021,2.222-0.448,2.777-1.826
			l3.899-9.529H46.72L44.372,67.315z"/>
		<path fill="#00A4E4" d="M57.533,61.058c-1.058,0-1.988,0.502-2.596,1.303V61.26h-1.752v11.152h1.752v-4.198
			c0.651,0.866,1.57,1.325,2.596,1.325c2.093,0,3.579-1.593,3.579-4.252C61.112,62.626,59.627,61.058,57.533,61.058z M57.021,67.978
			c-0.822,0-1.688-0.502-2.073-1.088v-3.195c0.385-0.598,1.25-1.09,2.073-1.09c1.389,0,2.275,1.121,2.275,2.683
			C59.296,66.856,58.409,67.978,57.021,67.978z"/>
		<path fill="#00A4E4" d="M64.232,62.444v-1.186h-1.751v8.075h1.751v-5.502c0.353-0.565,1.335-1.067,2.072-1.067
			c0.213,0,0.406,0.021,0.556,0.053v-1.74C65.802,61.077,64.831,61.675,64.232,62.444z"/>
		<path fill="#00A4E4" d="M71.506,61.058c-2.553,0-4.145,1.922-4.145,4.229c0,2.328,1.592,4.252,4.145,4.252
			c2.597,0,4.167-1.924,4.167-4.252C75.674,62.978,74.104,61.058,71.506,61.058z M71.506,67.978c-1.485,0-2.329-1.248-2.329-2.69
			c0-1.422,0.833-2.683,2.329-2.683c1.507,0,2.34,1.25,2.34,2.683C73.857,66.729,73.013,67.978,71.506,67.978z"/>
		<path fill="#00A4E4" d="M82.704,62.382c-0.652-0.855-1.571-1.324-2.596-1.324c-2.073,0-3.579,1.537-3.579,4.145
			c0,2.661,1.517,4.146,3.579,4.146c1.058,0,1.977-0.535,2.596-1.336v0.973c0,1.656-1.24,2.188-2.393,2.188
			c-1.069,0-1.902-0.289-2.554-1.036l-0.823,1.271c0.983,0.908,2.009,1.207,3.376,1.207c1.987,0,4.145-0.791,4.145-3.696v-7.659
			h-1.752v1.121H82.704z M82.704,66.707c-0.385,0.599-1.25,1.091-2.073,1.091c-1.389,0-2.276-1.035-2.276-2.597
			c0-1.56,0.887-2.597,2.276-2.597c0.823,0,1.688,0.48,2.073,1.09V66.707z"/>
		<path fill="#00A4E4" d="M88.076,62.444v-1.186h-1.752v8.075h1.752v-5.502c0.353-0.565,1.335-1.067,2.073-1.067
			c0.214,0,0.406,0.021,0.555,0.053v-1.74C89.647,61.077,88.687,61.675,88.076,62.444z"/>
		<path fill="#00A4E4" d="M95.043,61.058c-1.293,0-2.458,0.416-3.397,1.303l0.715,1.218c0.706-0.685,1.485-1.015,2.393-1.015
			c1.122,0,1.891,0.564,1.891,1.504v1.209c-0.587-0.685-1.527-1.035-2.607-1.035c-1.325,0-2.81,0.77-2.81,2.628
			c0,1.794,1.485,2.682,2.81,2.682c1.068,0,2.009-0.386,2.607-1.067v0.865h1.752v-5.354C98.407,61.804,96.826,61.058,95.043,61.058z
			 M96.646,67.499c-0.406,0.555-1.154,0.831-1.923,0.831c-0.983,0-1.72-0.565-1.72-1.44c0-0.888,0.737-1.453,1.72-1.453
			c0.769,0,1.517,0.289,1.923,0.834V67.499z"/>
		<path fill="#00A4E4" d="M109.593,61.058c-1.207,0-2.275,0.746-2.745,1.481c-0.268-0.886-1.004-1.481-2.212-1.481
			c-1.217,0-2.286,0.799-2.627,1.303V61.26h-1.752v8.075h1.752v-5.641c0.363-0.533,1.089-1.09,1.859-1.09
			c0.95,0,1.335,0.588,1.335,1.453v5.268h1.752v-5.651c0.353-0.524,1.09-1.067,1.87-1.067c0.94,0,1.325,0.588,1.325,1.451v5.269
			h1.752v-5.834C111.922,61.856,111.088,61.058,109.593,61.058z"/>
	</g>
</g>
</svg>
