<?xml version="1.0" encoding="utf-8"?>
<!-- Generator: Adobe Illustrator 16.0.0, SVG Export Plug-In . SVG Version: 6.00 Build 0)  -->
<!DOCTYPE svg PUBLIC "-//W3C//DTD SVG 1.1//EN" "http://www.w3.org/Graphics/SVG/1.1/DTD/svg11.dtd">
<svg version="1.1" id="Layer_1" xmlns="http://www.w3.org/2000/svg" xmlns:xlink="http://www.w3.org/1999/xlink" x="0px" y="0px"
	 width="300px" height="100px" viewBox="0 0 300 100" enable-background="new 0 0 300 100" xml:space="preserve">
<g>
	<g>
		<path fill="#00A4E4" d="M176.491,48.803c-0.182,0.855-0.705,1.528-1.485,1.913c-0.566,0.257-1.506,0.405-2.777,0.405h-0.952
			l0.994-4.7h1.101c1.068,0,1.55,0.054,2.041,0.16C176.342,46.849,176.727,47.692,176.491,48.803 M178.404,44.092
			c-0.876-0.598-2.009-0.812-4.359-0.812h-4.38l-3.771,17.712h3.292l1.431-6.741h1.058c2.521,0,3.708-0.181,4.818-0.779
			c1.635-0.886,2.896-2.681,3.322-4.722C180.252,46.71,179.739,45.032,178.404,44.092"/>
		<path fill="#00A4E4" d="M194.536,52.17c-0.716,3.406-3.761,5.97-7.127,5.97c-3.354,0-5.428-2.638-4.722-5.994
			c0.737-3.428,3.867-6.013,7.276-6.013C193.264,46.133,195.272,48.771,194.536,52.17 M190.7,42.971
			c-5.278,0-10.203,4.006-11.303,9.188c-1.08,5.105,2.18,9.155,7.382,9.155c5.149,0,9.978-4.006,11.078-9.188
			C198.938,47.062,195.753,42.971,190.7,42.971"/>
		<polygon fill="#00A4E4" points="203.873,43.28 200.593,43.28 196.821,60.992 205.528,60.992 206.202,57.862 200.774,57.862 		"/>
		<polygon fill="#00A4E4" points="206.512,38.569 202.74,56.281 208.637,56.281 209.3,53.141 206.693,53.141 209.792,38.569 		"/>
		<path fill="#00A4E4" d="M235.217,52.17c-0.715,3.406-3.759,5.97-7.114,5.97c-3.354,0-5.438-2.638-4.723-5.994
			c0.737-3.428,3.868-6.013,7.275-6.013C233.935,46.133,235.944,48.771,235.217,52.17 M231.383,42.971
			c-5.277,0-10.204,4.006-11.314,9.188c-1.078,5.105,2.179,9.155,7.383,9.155c5.148,0,9.988-4.006,11.09-9.188
			C239.618,47.062,236.436,42.971,231.383,42.971"/>
		<path fill="#00A4E4" d="M241.605,56.891c0.075,1.133,0.503,1.625,1.443,1.625c0.821,0,1.581-0.557,1.73-1.316
			c0.096-0.426-0.043-0.799-0.385-1.036c-0.289-0.213-0.384-0.267-1.527-0.683c-2.479-0.886-3.302-2.009-2.885-3.974
			c0.48-2.309,2.831-4.093,5.32-4.093c1.336,0,2.479,0.534,3.13,1.475c0.491,0.738,0.619,1.41,0.428,2.544h-3.152
			c0-0.695-0.353-1.06-1.035-1.06c-0.705,0-1.336,0.481-1.476,1.134c-0.084,0.384,0.064,0.705,0.461,0.896
			c0.286,0.139,0.286,0.139,1.506,0.546c1.078,0.361,1.806,0.705,2.222,1.133c0.684,0.651,0.909,1.623,0.662,2.786
			c-0.545,2.563-3.077,4.562-5.759,4.562c-1.624,0-2.99-0.693-3.62-1.858c-0.375-0.728-0.461-1.4-0.321-2.704h3.258V56.891z"/>
		<path fill="#00A4E4" d="M267.14,54.401c-0.481,2.298,0.854,4.114,3.023,4.114c2.126,0,4.262-1.816,4.743-4.072
			c0.479-2.222-0.876-4.07-3.034-4.07C269.768,50.373,267.609,52.189,267.14,54.401 M278.133,54.54
			c-0.812,3.772-4.723,6.912-8.622,6.912c-3.92,0-6.441-3.14-5.618-7.019c0.812-3.847,4.689-7.02,8.577-7.02
			C276.509,47.426,278.966,50.546,278.133,54.54"/>
		<polygon fill="#00A4E4" points="288.282,43.259 287.331,47.734 286.711,50.673 284.479,61.153 287.695,61.153 289.927,50.673 
			291.86,50.673 292.48,47.734 290.557,47.734 291.497,43.259 		"/>
		<polygon fill="#00A4E4" points="221.436,46.421 222.099,43.28 212.58,43.28 209.898,55.908 209.909,55.908 208.819,60.992 
			218.338,60.992 218.999,57.862 212.771,57.862 213.861,52.756 218.541,52.756 219.214,49.615 214.523,49.615 215.207,46.421 		"/>
		<path fill="#00A4E4" d="M279.072,53.023L279.072,53.023l-1.73,8.13h3.216l1.592-7.457c0.448-2.073,1.613-3.119,3.558-3.173
			l0.641-3.034C282.289,47.714,279.884,49.21,279.072,53.023"/>
		<path fill="#00A4E4" d="M260.067,54.476c-0.492,2.276-2.532,4.04-4.67,4.04c-2.274,0-3.6-1.742-3.097-4.092
			c0.49-2.298,2.563-4.039,4.785-4.039C259.266,50.373,260.56,52.146,260.067,54.476 M258.122,47.426
			c-4.027,0-7.906,2.554-8.813,6.869l-2.243,10.512h3.226l1.048-4.903c0.982,1.089,2.138,1.569,3.792,1.569
			c3.867,0,7.329-2.989,8.194-7.061C264.18,50.353,262.001,47.426,258.122,47.426"/>
		<g>
			<g>
				<path fill="#00A4E4" d="M293.079,56.613c1.324,0,2.436,1.046,2.436,2.414c0,1.4-1.111,2.435-2.436,2.435
					c-1.326,0-2.447-1.046-2.447-2.435C290.632,57.649,291.753,56.613,293.079,56.613z M293.079,61.11
					c1.121,0,1.986-0.897,1.986-2.083c0-1.165-0.865-2.062-1.986-2.062c-1.144,0-2.009,0.897-2.009,2.062
					C291.081,60.213,291.936,61.11,293.079,61.11z M292.127,57.617h1.102c0.672,0,0.992,0.256,0.992,0.812
					c0,0.513-0.32,0.728-0.747,0.77l0.812,1.25h-0.471l-0.77-1.218h-0.47v1.218h-0.438v-2.831H292.127z M292.576,58.867h0.46
					c0.395,0,0.747-0.022,0.747-0.471c0-0.373-0.319-0.438-0.62-0.438h-0.587V58.867z"/>
			</g>
		</g>
	</g>
	<g>
		<polygon fill="#00A4E4" points="21.07,48.141 9.201,48.141 9.201,25.343 3.229,25.343 3.229,53.397 21.07,53.397 		"/>
		<path fill="#00A4E4" d="M109.539,46.838c-0.93,1.175-2.564,2.318-4.626,2.318c-2.275,0-3.739-0.93-3.739-3.739v-12.34h-5.342
			v14.434c0,3.952,2.104,6.398,6.56,6.398c3.322,0,5.758-1.517,7.147-3.064v2.562h5.341v-20.33h-5.341V46.838z"/>
		<path fill="#00A4E4" d="M128.63,32.575c-2.393,0-4.669,1.047-6.271,3.109V25.343h-5.342v28.055h5.342v-2.564
			c1.602,1.976,3.825,3.066,6.271,3.066c5.128,0,9.006-3.867,9.006-10.641C137.636,36.613,133.812,32.575,128.63,32.575z
			 M128.063,37.072c0.502-0.544,1.068-0.993,1.773-1.249c0.534-0.193,1.154-0.011,1.346,0.513c0.48,1.346,0.513,2.414-0.684,3.536
			c-0.224,0.203-0.47,0.396-0.716,0.566c-0.182,0.118-0.395,0.171-0.524,0.224c-0.812-0.096-1.303-0.502-1.656-1.078
			C127.017,38.644,127.39,37.8,128.063,37.072z M124.399,36.421c0.278-0.117,0.566-0.224,0.844-0.342
			c0.609-0.031,0.78,0.46,0.961,0.823c0.3,0.577,0.534,1.207,0.3,1.88c-0.075,0.235-0.182,0.471-0.332,0.651
			c-0.471,0.578-0.983,1.09-1.72,1.379c-0.641,0.245-1.313-0.139-1.506-0.694C122.477,38.793,122.818,37.084,124.399,36.421z
			 M130.393,46.356c-0.128,0.749-0.257,1.507-0.385,2.266c-0.139,0.833-0.245,1.646-0.812,2.351
			c-0.663,0.844-1.816,0.897-2.49,0.213c-0.224-0.224-0.406-0.491-0.587-0.758c-0.342-0.503-0.706-0.973-1.24-1.293
			c-0.502-0.299-0.726-0.802-0.886-1.325c-0.139-0.459-0.492-0.684-0.898-0.779c-0.705-0.16-1.325-0.406-1.773-1.016
			c-0.705-0.939-0.812-2.563,0.448-3.236c0.203-0.107,0.449-0.139,0.673-0.203c0.823-0.203,1.656-0.385,2.479-0.62
			c0.417-0.117,0.801-0.363,1.208-0.513c0.608-0.224,1.228-0.416,1.88-0.096c0.502,0.245,0.759,0.693,0.79,1.186
			c0.054,0.705,0.439,0.993,1.037,1.164c0.694,0.203,0.78,0.343,0.791,1.314C130.595,45.289,130.489,45.822,130.393,46.356z
			 M131.621,40.033c0.374-0.386,0.78-0.76,1.197-1.102c0.491-0.405,1.089-0.544,1.666-0.277c0.695,0.331,1.015,0.939,0.952,1.71
			c-0.065,0.812-0.226,1.591-0.706,2.275c-0.47,0.662-1.71,1.388-2.575,0.833c-0.257-0.161-0.535-0.342-0.695-0.588
			c-0.234-0.385-0.396-0.886-0.449-1.293C130.991,41.005,131.205,40.47,131.621,40.033z M135.093,47.629
			c-0.267,0.427-0.641,0.801-1.015,1.132c-0.31,0.277-0.705,0.47-1.068,0.673c-0.127,0.075-0.288,0.086-0.438,0.118
			c-0.982,0-1.73-1.208-1.378-2.255c0.268-0.79,0.663-1.506,1.282-2.051c0.599-0.513,1.292-0.77,2.073-0.48
			c0.192,0.063,0.417,0.214,0.492,0.385C135.457,45.962,135.595,46.815,135.093,47.629z"/>
		<rect x="88.333" y="25.343" fill="#00A4E4" width="5.342" height="28.055"/>
		<path fill="#00A4E4" d="M82.905,44.52c-1.175,2.318-3.707,4.081-6.816,4.081c-4.882,0-8.579-3.91-8.579-9.209
			s3.707-9.209,8.579-9.209c3.109,0,5.641,1.805,6.816,4.081l5.128-2.521c-1.977-3.493-5.556-6.858-11.944-6.858
			c-8.205,0-14.722,5.886-14.722,14.508c0,0.256,0.01,0.513,0.021,0.759c-1.175-4.327-4.872-7.575-10.363-7.575
			c-5.684,0-9.455,3.525-10.459,8.13c-1.079-4.936-4.786-8.13-9.861-8.13c-6.185,0-10.512,4.754-10.512,10.641
			c0,6.517,4.668,10.684,10.854,10.684c3.151,0,6.314-0.93,8.376-2.82l-2.361-3.45c-1.304,1.26-3.536,2.019-5.427,2.019
			c-3.451,0-5.512-2.147-5.843-4.712h14.635c0.717,5.011,4.594,8.964,10.599,8.964c6.73,0,10.769-4.883,10.769-10.684
			c0-0.064,0-0.117,0-0.182c1.56,6.593,7.318,10.865,14.305,10.865c6.399,0,9.925-3.408,11.944-6.901L82.905,44.52z M25.696,41.325
			c0.255-2.02,1.688-4.498,5.01-4.498c3.537,0,4.883,2.564,5.011,4.498H25.696z M51.015,49.146c-3.322,0-5.17-2.735-5.17-5.93
			c0-3.151,1.848-5.887,5.17-5.887c3.323,0,5.213,2.735,5.213,5.887C56.24,46.41,54.348,49.146,51.015,49.146z"/>
		<rect x="4.115" y="60.683" fill="#00A4E4" width="1.752" height="11.153"/>
		<path fill="#00A4E4" d="M11.38,63.558c-2.553,0-4.145,1.922-4.145,4.23c0,2.328,1.592,4.252,4.145,4.252
			c2.596,0,4.166-1.924,4.166-4.252C15.546,65.479,13.976,63.558,11.38,63.558z M11.38,70.479c-1.485,0-2.329-1.249-2.329-2.691
			c0-1.422,0.833-2.682,2.329-2.682c1.506,0,2.339,1.249,2.339,2.682C13.72,69.23,12.887,70.479,11.38,70.479z"/>
		<path fill="#00A4E4" d="M19.97,69.817l-2.361-6.057h-1.869l3.312,8.184l-0.406,0.918c-0.235,0.534-0.598,0.705-1.153,0.705
			c-0.204,0-0.481-0.054-0.673-0.139L16.551,75c0.246,0.062,0.737,0.116,0.982,0.116c1.25-0.021,2.223-0.448,2.778-1.826
			l3.899-9.529H22.32L19.97,69.817z"/>
		<path fill="#00A4E4" d="M28.228,63.558c-1.293,0-2.457,0.416-3.397,1.304l0.715,1.217c0.706-0.685,1.485-1.015,2.393-1.015
			c1.122,0,1.891,0.565,1.891,1.505v1.208c-0.587-0.684-1.527-1.035-2.606-1.035c-1.325,0-2.81,0.77-2.81,2.628
			c0,1.794,1.485,2.682,2.81,2.682c1.068,0,2.008-0.386,2.606-1.068v0.865h1.752v-5.354C31.593,64.305,30.022,63.558,28.228,63.558z
			 M29.841,70c-0.406,0.555-1.154,0.831-1.923,0.831c-0.983,0-1.72-0.566-1.72-1.44c0-0.888,0.737-1.454,1.72-1.454
			c0.769,0,1.518,0.289,1.923,0.834V70z"/>
		<rect x="33.452" y="60.683" fill="#00A4E4" width="1.752" height="11.153"/>
		<path fill="#00A4E4" d="M39.948,70.479c-0.502,0-0.77-0.405-0.77-0.951v-4.231h1.635v-1.536h-1.635v-2.212h-1.752v2.212h-1.335
			v1.536h1.335v4.671c0,1.336,0.715,2.072,2.072,2.072c0.823,0,1.335-0.214,1.656-0.525l-0.416-1.324
			C40.6,70.352,40.279,70.479,39.948,70.479z"/>
		<path fill="#00A4E4" d="M45.054,69.817l-2.361-6.057h-1.87l3.312,8.184l-0.406,0.918c-0.235,0.534-0.598,0.705-1.154,0.705
			c-0.203,0-0.48-0.054-0.672-0.139L41.635,75c0.246,0.062,0.737,0.116,0.983,0.116c1.25-0.021,2.222-0.448,2.777-1.826l3.899-9.529
			h-1.891L45.054,69.817z"/>
		<path fill="#00A4E4" d="M58.216,63.558c-1.058,0-1.988,0.502-2.596,1.304v-1.101h-1.752v11.152h1.752v-4.198
			c0.651,0.866,1.57,1.325,2.596,1.325c2.093,0,3.579-1.593,3.579-4.252C61.795,65.127,60.31,63.558,58.216,63.558z M57.703,70.479
			c-0.822,0-1.688-0.502-2.073-1.089v-3.195c0.385-0.597,1.25-1.089,2.073-1.089c1.389,0,2.275,1.121,2.275,2.682
			C59.979,69.358,59.092,70.479,57.703,70.479z"/>
		<path fill="#00A4E4" d="M64.915,64.945v-1.185h-1.751v8.075h1.751v-5.502c0.353-0.565,1.335-1.067,2.072-1.067
			c0.213,0,0.406,0.021,0.556,0.053v-1.741C66.485,63.578,65.513,64.176,64.915,64.945z"/>
		<path fill="#00A4E4" d="M72.189,63.558c-2.553,0-4.145,1.922-4.145,4.23c0,2.328,1.592,4.252,4.145,4.252
			c2.597,0,4.167-1.924,4.167-4.252C76.357,65.479,74.786,63.558,72.189,63.558z M72.189,70.479c-1.485,0-2.329-1.249-2.329-2.691
			c0-1.422,0.833-2.682,2.329-2.682c1.507,0,2.34,1.249,2.34,2.682C74.54,69.23,73.696,70.479,72.189,70.479z"/>
		<path fill="#00A4E4" d="M83.386,64.883c-0.652-0.855-1.571-1.325-2.596-1.325c-2.073,0-3.579,1.537-3.579,4.145
			c0,2.661,1.517,4.146,3.579,4.146c1.058,0,1.977-0.534,2.596-1.336v0.973c0,1.657-1.24,2.189-2.393,2.189
			c-1.069,0-1.902-0.289-2.554-1.036l-0.823,1.271c0.983,0.908,2.009,1.207,3.376,1.207c1.987,0,4.145-0.791,4.145-3.696v-7.659
			h-1.752V64.883z M83.386,69.208c-0.385,0.599-1.25,1.091-2.073,1.091c-1.389,0-2.276-1.036-2.276-2.597
			c0-1.56,0.887-2.596,2.276-2.596c0.823,0,1.688,0.48,2.073,1.089V69.208z"/>
		<path fill="#00A4E4" d="M88.759,64.945v-1.185h-1.752v8.075h1.752v-5.502c0.353-0.565,1.335-1.067,2.073-1.067
			c0.214,0,0.406,0.021,0.555,0.053v-1.741C90.33,63.578,89.369,64.176,88.759,64.945z"/>
		<path fill="#00A4E4" d="M95.726,63.558c-1.293,0-2.458,0.416-3.397,1.304l0.715,1.217c0.706-0.685,1.485-1.015,2.393-1.015
			c1.122,0,1.891,0.565,1.891,1.505v1.208c-0.587-0.684-1.527-1.035-2.607-1.035c-1.325,0-2.81,0.77-2.81,2.628
			c0,1.794,1.485,2.682,2.81,2.682c1.068,0,2.009-0.386,2.607-1.068v0.865h1.752v-5.354C99.09,64.305,97.509,63.558,95.726,63.558z
			 M97.328,70c-0.406,0.555-1.154,0.831-1.923,0.831c-0.983,0-1.72-0.566-1.72-1.44c0-0.888,0.737-1.454,1.72-1.454
			c0.769,0,1.517,0.289,1.923,0.834V70z"/>
		<path fill="#00A4E4" d="M110.276,63.558c-1.207,0-2.275,0.747-2.745,1.482c-0.268-0.886-1.004-1.482-2.212-1.482
			c-1.217,0-2.286,0.8-2.627,1.304v-1.101h-1.752v8.075h1.752v-5.641c0.363-0.533,1.089-1.089,1.859-1.089
			c0.95,0,1.335,0.588,1.335,1.452v5.268h1.752v-5.651c0.353-0.524,1.09-1.068,1.87-1.068c0.94,0,1.325,0.588,1.325,1.452v5.268
			h1.752v-5.834C112.605,64.357,111.771,63.558,110.276,63.558z"/>
	</g>
	<rect x="150.744" y="30.001" fill="#00A4E4" width="1.421" height="39.111"/>
</g>
</svg>
